<svg width="432" height="85" viewBox="0 0 432 85" fill="none" xmlns="http://www.w3.org/2000/svg">
<g clip-path="url(#clip0_905_3647)">
<path d="M42.451 84.7066C65.896 84.7066 84.902 65.7443 84.902 42.3533C84.902 18.9622 65.896 0 42.451 0C19.006 0 0 18.9622 0 42.3533C0 65.7443 19.006 84.7066 42.451 84.7066Z" fill="white"/>
<path d="M46.7647 18.2911C46.3726 18.1933 44.6078 17.8999 42.451 17.8999C40.3922 17.8999 38.5294 18.1933 38.1373 18.2911C37.9412 18.2911 37.8431 18.0955 38.0392 17.9977C38.2353 17.8999 42.451 14.672 42.451 14.672L46.8627 17.9977C47.0588 18.1933 46.9608 18.389 46.7647 18.2911ZM39.4118 39.3211C39.4118 39.3211 39.2157 39.4189 39.1176 39.6145C40 40.2992 40.5882 41.8642 42.451 41.8642C44.3137 41.8642 44.902 40.2992 45.7843 39.6145C45.6863 39.4189 45.4902 39.3211 45.4902 39.3211C45.4902 39.3211 44.3137 39.6145 42.451 39.6145C40.5882 39.6145 39.4118 39.3211 39.4118 39.3211ZM42.451 36.6801C41.9608 36.6801 41.8627 36.4845 41.4706 36.4845C41.1765 36.4845 40.4902 36.7779 40.2941 36.9735C40.2941 37.0713 40.3922 37.1692 40.3922 37.267C41.1765 37.3648 41.4706 37.756 42.3529 37.756C43.2353 37.756 43.5294 37.3648 44.3137 37.267C44.4118 37.1692 44.4118 37.0713 44.4118 36.9735C44.3137 36.7779 43.6275 36.4845 43.2353 36.4845C43.1373 36.4845 43.0392 36.6801 42.451 36.6801ZM84.902 44.7008C84.8039 45.6789 84.8039 46.7549 84.6078 47.733C79.8039 48.5155 78.0392 44.2117 73.1373 44.5052C73.4314 45.5811 73.6275 46.6571 73.8235 47.733C77.8431 47.733 79.5098 51.5478 84.0196 50.9609C83.8235 52.1346 83.5294 53.3084 83.1373 54.3843C79.6078 54.7756 78.3333 51.1565 74.1177 51.2543C74.1177 51.8412 74.2157 52.4281 74.2157 53.015V53.9931L82.2549 57.0253C81.8628 58.1991 81.3726 59.275 80.8824 60.351C78.4314 60.2532 77.6471 57.1231 73.9216 57.4166C73.8235 58.1991 73.6275 58.9816 73.5294 59.7641C76.7647 59.5685 77.451 62.5029 79.7059 62.6985C79.1177 63.7745 78.5294 64.7526 77.8431 65.8285C76.4706 65.1439 75.2941 62.8941 72.7451 62.7963C73.0392 62.0138 73.2353 61.1335 73.4314 60.351C71.1765 60.351 68.5294 59.4707 66.3726 57.5144C67.0588 53.504 60.7843 49.3959 60.7843 46.4615C60.7843 43.2336 62.451 41.473 62.451 37.1692C62.451 33.9413 60.8824 30.5178 58.5294 28.1703C58.0392 27.6812 57.6471 27.29 57.0588 26.9965C59.2157 29.6375 60.8824 32.8654 60.8824 36.4845C60.8824 40.5926 59.0196 42.6467 59.0196 46.4615C59.0196 50.1784 64.5098 53.4062 64.5098 57.3188C64.5098 58.8838 64.0196 60.351 62.451 63.2854C64.902 65.7307 68.1373 67.1001 70.1961 67.1001C70.8824 67.1001 71.2745 66.9045 71.4706 66.4154C71.6667 65.9264 71.8627 65.5351 72.0588 65.046C74.3137 65.1438 75.2941 67.1979 76.5686 67.9804C75.8824 68.8608 75.1961 69.7411 74.4118 70.6214C73.6275 69.7411 72.451 68.1761 70.8824 67.7848C70.5882 68.3717 70.2941 68.8608 70 69.4476C71.3726 69.8389 72.3529 71.2083 73.1373 72.1864C72.3529 72.9689 71.4706 73.8493 70.5882 74.5339C70 73.6536 69.2157 72.5777 68.2353 72.0886C67.8431 72.5777 67.549 73.0667 67.1569 73.458C67.9412 74.0449 68.6275 75.023 69.1177 75.8055C68.1373 76.588 67.0588 77.3705 65.9804 78.0552C65.4902 73.7514 59.6078 70.817 61.1765 65.8285C60.6863 66.7089 60 67.7848 60 69.1542C60 72.7733 63.8235 75.6099 64.2157 79.229C63.4314 79.7181 62.549 80.1093 61.7647 80.5984C61.6667 76.6859 57.549 72.2842 57.549 69.0564C57.549 65.4373 62.2549 61.8182 62.2549 57.5144C62.2549 53.2106 56.7647 50.2762 56.7647 46.5593C56.7647 42.8423 59.1176 40.6904 59.1176 35.7998C59.1176 32.2785 57.451 28.7572 54.8039 26.4097C54.3137 26.0184 53.9216 25.725 53.3333 25.4315C55.7843 28.3659 57.1569 31.0069 57.1569 35.0173C57.1569 39.5167 54.5098 42.0598 54.5098 46.4615C54.5098 50.8631 59.902 53.3084 59.902 57.5144C59.902 61.7204 54.902 65.1438 54.902 69.3498C54.902 73.1646 59.3137 77.0771 59.4118 81.6743C58.4314 82.0656 57.451 82.4568 56.4706 82.8481C57.0588 78.2509 52.0588 73.458 52.0588 69.6433C52.0588 65.5351 57.2549 62.0138 57.2549 57.5144C57.2549 53.1128 51.9608 50.9609 51.9608 46.4615C51.9608 41.8642 55.1961 39.4189 55.1961 34.3326C55.1961 30.42 53.2353 26.8987 50.3922 24.649L50.1961 24.5512C49.902 24.3556 49.7059 24.5512 49.902 24.8447C51.9608 27.3878 52.9412 29.931 52.9412 33.6479C52.9412 38.2451 49.2157 41.962 49.2157 46.4615C49.2157 51.7434 54.2157 53.2106 54.2157 57.6122C54.2157 61.916 48.8235 65.4373 48.8235 70.0345C48.8235 74.3383 53.9216 79.0334 53.0392 83.9241C52.0588 84.2175 50.9804 84.4131 49.902 84.6087C50.8824 78.4465 45.8824 74.0449 45.8824 70.1323C45.8824 65.8285 51.4706 61.916 51.4706 57.71C51.4706 53.6997 47.451 52.4281 46.9608 48.3199C46.8628 47.733 46.4706 47.3418 45.7843 47.4396C45 47.6352 43.9216 48.1243 42.3529 48.1243C40.7843 48.1243 39.7059 47.6352 38.9216 47.4396C38.3333 47.3418 37.8431 47.733 37.7451 48.3199C37.3529 51.8412 33.3333 53.2106 33.3333 57.1231C33.3333 61.3291 38.9216 65.2417 38.9216 69.5455C38.9216 73.5558 33.9216 77.9574 34.902 84.0219C33.8235 83.8262 32.8431 83.6306 31.7647 83.3372C30.8824 78.4465 35.9804 73.6536 35.9804 69.4476C35.9804 64.8504 30.5882 61.4269 30.5882 57.0253C30.5882 52.7215 35.5882 51.1565 35.5882 45.8746C35.5882 41.3751 31.8627 37.6582 31.8627 33.061C31.8627 29.3441 32.9412 26.8009 34.902 24.2578C35.098 24.0621 34.902 23.7687 34.6078 23.9643L34.4118 24.0621C31.5686 26.214 29.6078 29.7353 29.6078 33.7457C29.6078 38.832 32.8431 41.2773 32.8431 45.8746C32.8431 50.4718 27.549 52.5259 27.549 56.9275C27.549 61.3291 32.7451 64.9482 32.7451 69.0564C32.7451 72.8711 27.7451 77.5662 28.3333 82.2612C27.3529 81.87 26.3726 81.5765 25.3922 81.0875C25.4902 76.4902 29.902 72.6755 29.902 68.763C29.902 64.557 24.902 61.0357 24.902 56.9275C24.902 52.8193 30.3922 50.5696 30.3922 46.168C30.3922 41.7664 27.7451 39.2232 27.7451 34.7238C27.7451 30.7135 29.1176 28.0725 31.5686 25.1381C30.9804 25.4315 30.5882 25.725 30.098 26.1162C27.549 28.3659 25.7843 31.985 25.7843 35.5063C25.7843 40.2992 28.1373 42.4511 28.1373 46.2658C28.1373 49.9827 22.6471 53.015 22.6471 57.2209C22.6471 61.5247 27.3529 65.1439 27.3529 68.763C27.3529 71.9908 23.2353 76.2946 23.1373 80.3049C22.2549 79.9137 21.4706 79.4246 20.6863 78.9356C20.9804 75.3165 24.902 72.4799 24.902 68.8608C24.902 67.4914 24.3137 66.4154 23.7255 65.5351C25.2941 70.5236 19.4118 73.458 18.9216 77.7618C17.8431 77.0771 16.7647 76.2946 15.7843 75.5121C16.2745 74.7296 16.9608 73.7514 17.7451 73.1646C17.3529 72.6755 16.9608 72.2842 16.6667 71.7952C15.6863 72.382 14.902 73.458 14.3137 74.2405C13.4314 73.458 12.6471 72.6755 11.7647 71.893C12.549 70.9148 13.4314 69.5455 14.902 69.1542C14.6078 68.5673 14.3137 68.0783 14.0196 67.4914C12.3529 67.8826 11.2745 69.4476 10.4902 70.328C9.80392 69.4476 9.01961 68.5673 8.43137 67.687C9.70588 66.9045 10.6863 64.8504 12.9412 64.7526C13.1373 65.2417 13.3333 65.6329 13.5294 66.122C13.7255 66.611 14.1176 66.8067 14.8039 66.8067C16.8627 66.8067 20.098 65.4373 22.549 62.9919C20.9804 60.0575 20.4902 58.5903 20.4902 57.0253C20.4902 53.1128 25.9804 49.8849 25.9804 46.168C25.9804 42.4511 24.1176 40.2992 24.1176 36.191C24.1176 32.5719 25.7843 29.3441 27.9412 26.7031C27.451 26.9965 26.9608 27.3878 26.4706 27.8769C24.1176 30.2244 22.549 33.7457 22.549 36.8757C22.549 41.1795 24.2157 42.9402 24.2157 46.168C24.2157 49.1024 17.9412 53.2106 18.6275 57.2209C16.4706 59.1772 13.8235 60.0575 11.5686 60.0575C11.7647 60.9379 11.9608 61.7204 12.2549 62.5029C9.70588 62.6007 8.52941 64.8504 7.15686 65.5351C6.47059 64.557 5.88235 63.481 5.29412 62.4051C7.54902 62.2094 8.23529 59.275 11.4706 59.4707C11.2745 58.6881 11.1765 57.9056 11.0784 57.1231C7.45098 56.8297 6.56863 59.9597 4.11765 60.0575C3.62745 58.9816 3.13725 57.8078 2.7451 56.7319L10.7843 53.6997V52.7215C10.7843 52.1346 10.7843 51.5478 10.8824 50.9609C6.76471 50.8631 5.4902 54.3843 1.86275 54.0909C1.56863 52.9171 1.27451 51.8412 0.980392 50.6674C5.4902 51.2543 7.15686 47.4396 11.1765 47.4396C11.3725 46.3636 11.5686 45.2877 11.8627 44.2117C6.96078 44.0161 5.19608 48.3199 0.392157 47.4396C0.294118 46.4615 0.196078 45.4833 0.0980392 44.4074C5.68627 44.9943 7.7451 40.397 12.8431 40.9839C13.3333 39.8101 13.9216 38.6364 14.5098 37.4626C8.13726 36.6801 5.98039 41.962 0 41.1795C0.686275 18.2911 19.4118 0 42.451 0C65.4902 0 84.3137 18.2911 85 41.1795C79.0196 41.962 76.8628 36.6801 70.4902 37.756C71.0784 38.9298 71.6667 40.1036 72.1569 41.2773C77.2549 40.7883 79.3137 45.3855 84.902 44.7008ZM24.2157 26.8987C21.0784 25.6272 17.2549 25.9206 14.0196 27.9747C13.5294 24.9425 11.8627 22.3015 9.60784 20.7365C9.31373 20.5409 8.92157 20.7365 9.01961 21.1277C9.5098 27.4856 5.78431 32.9632 1.17647 37.8539C5.88235 39.2232 9.90196 33.2566 15.9804 35.3107C18.2353 31.985 20.9804 29.1484 24.2157 26.8987ZM42.451 23.084C38.5294 23.084 35.1961 25.3337 34.3137 28.1703C34.2157 28.3659 34.3137 28.5616 34.6078 28.4638C35.2941 28.1703 36.0784 27.9747 36.9608 27.9747C38.5294 27.9747 40 28.5616 40.7843 29.6375C41.1765 30.8113 41.1765 32.6697 40.7843 33.6479C40.098 33.4522 39.902 32.9632 39.2157 32.9632C38.5294 32.9632 38.0392 33.4522 36.9608 33.4522C35.8824 33.4522 35.7843 32.9632 35 32.9632C34.1176 32.9632 34.0196 33.8435 34.0196 34.8216C34.0196 39.2232 38.0392 45.2877 42.3529 45.2877C46.6667 45.2877 50.6863 39.2232 50.6863 34.8216C50.6863 33.8435 50.4902 32.9632 49.6078 32.8654C49.1176 33.1588 48.7255 33.4522 47.7451 33.4522C46.6667 33.4522 46.3726 32.9632 45.6863 32.9632C44.902 32.9632 45 34.626 44.0196 34.7238C43.4314 33.2566 43.3333 31.3003 43.9216 29.6375C44.8039 28.6594 46.1765 27.9747 47.7451 27.9747C48.6275 27.9747 49.4118 28.1703 50.098 28.4638C50.3922 28.5616 50.4902 28.4638 50.3922 28.1703C49.7059 25.3337 46.4706 23.084 42.451 23.084ZM48.8235 29.4419C47.8431 29.4419 46.7647 29.7353 46.0784 30.5178C45.9804 30.7135 45.9804 31.0069 46.0784 31.2025C47.7451 30.6157 49.3137 30.6157 50 31.3982C50.3922 31.0069 50.4902 30.7135 50.4902 30.3222C50.4902 29.8331 49.902 29.4419 48.8235 29.4419ZM35 31.3982C35.7843 30.6157 37.549 30.6157 39.4118 31.3003C39.5098 30.42 37.8431 29.4419 36.2745 29.4419C35.098 29.4419 34.5098 29.8331 34.5098 30.42C34.5098 30.7135 34.6078 31.0069 35 31.3982ZM62.1569 16.5305C59.0196 16.7261 56.3726 17.8021 54.1177 19.5627C55 16.9217 56.2745 14.672 57.7451 12.4223C53.8235 12.8136 50.4902 14.2808 48.0392 16.7261L46.1765 11.7376L50.3922 8.02071L44.8039 7.62946L42.549 2.44534L40.2941 7.62946L34.7059 8.02071L38.9216 11.7376L37.0588 16.7261C34.6078 14.2808 31.2745 12.8136 27.3529 12.4223C28.8235 14.672 30 16.9217 30.9804 19.5627C28.8235 17.8021 26.0784 16.7261 22.9412 16.5305C24.8039 18.9758 26.4706 21.519 27.6471 24.2578C27.7451 24.5512 28.0392 24.649 28.4314 24.5512C32.7451 22.3993 37.549 21.2255 42.549 21.2255C47.549 21.2255 52.451 22.3993 56.6667 24.5512C56.9608 24.7468 57.2549 24.649 57.451 24.2578C58.6275 21.519 60.2941 18.9758 62.1569 16.5305ZM68.9216 35.3107C75 33.1588 79.0196 39.2232 83.7255 37.8539C79.1177 32.9632 75.3922 27.4856 75.8824 21.1277C75.8824 20.7365 75.5882 20.5409 75.2941 20.7365C72.9412 22.3015 71.3726 25.0403 70.8824 27.9747C67.6471 25.9206 63.8235 25.6272 60.6863 26.8987C64.0196 29.1484 66.7647 31.985 68.9216 35.3107Z" fill="#006341"/>
<path d="M74.5098 79.1312H72.353V84.9022H71.5686V79.1312H69.4118V78.4465H74.5098V79.1312ZM75.3922 78.4465H76.5686L78.8235 83.5328L81.0784 78.4465H82.2549V85H81.3726V79.5224L79.0196 85H78.5294L76.1765 79.5224V85H75.3922V78.4465Z" fill="#006341"/>
</g>
<path d="M123.801 39C123.733 38.1477 123.413 37.483 122.842 37.0057C122.28 36.5284 121.423 36.2898 120.273 36.2898C119.54 36.2898 118.939 36.3793 118.47 36.5582C118.01 36.7287 117.669 36.9631 117.447 37.2614C117.226 37.5597 117.111 37.9006 117.102 38.2841C117.085 38.5994 117.141 38.8849 117.268 39.1406C117.405 39.3878 117.618 39.6136 117.908 39.8182C118.197 40.0142 118.568 40.1932 119.02 40.3551C119.472 40.517 120.009 40.6619 120.631 40.7898L122.778 41.25C124.227 41.5568 125.467 41.9616 126.499 42.4645C127.53 42.9673 128.374 43.5597 129.03 44.2415C129.686 44.9148 130.168 45.6733 130.474 46.517C130.79 47.3608 130.952 48.2812 130.96 49.2784C130.952 51 130.521 52.4574 129.669 53.6506C128.817 54.8438 127.598 55.7514 126.013 56.3736C124.436 56.9957 122.54 57.3068 120.324 57.3068C118.048 57.3068 116.063 56.9702 114.366 56.2969C112.679 55.6236 111.366 54.5881 110.429 53.1903C109.5 51.7841 109.031 49.9858 109.023 47.7955H115.773C115.815 48.5966 116.016 49.2699 116.374 49.8153C116.732 50.3608 117.234 50.7741 117.882 51.0554C118.538 51.3366 119.318 51.4773 120.222 51.4773C120.98 51.4773 121.615 51.3835 122.126 51.196C122.638 51.0085 123.026 50.7486 123.29 50.4162C123.554 50.0838 123.69 49.7045 123.699 49.2784C123.69 48.8778 123.558 48.5284 123.303 48.2301C123.055 47.9233 122.646 47.6506 122.075 47.4119C121.504 47.1648 120.733 46.9347 119.761 46.7216L117.153 46.1591C114.835 45.6562 113.007 44.8168 111.669 43.6406C110.339 42.456 109.679 40.8409 109.688 38.7955C109.679 37.1335 110.122 35.6804 111.017 34.4361C111.92 33.1832 113.169 32.2074 114.763 31.5085C116.365 30.8097 118.202 30.4602 120.273 30.4602C122.386 30.4602 124.214 30.8139 125.757 31.5213C127.3 32.2287 128.489 33.2259 129.324 34.5128C130.168 35.7912 130.594 37.2869 130.602 39H123.801ZM132.948 36.5455V30.8182H155.704V36.5455H147.829V57H140.823V36.5455H132.948ZM161.875 57H154.205L162.847 30.8182H172.563L181.205 57H173.534L167.807 38.0284H167.603L161.875 57ZM160.444 46.6705H174.864V51.9886H160.444V46.6705ZM183.727 57V30.8182H195.028C196.971 30.8182 198.671 31.1719 200.129 31.8793C201.586 32.5866 202.719 33.6051 203.529 34.9347C204.339 36.2642 204.744 37.858 204.744 39.7159C204.744 41.5909 204.326 43.1719 203.491 44.4588C202.664 45.7457 201.501 46.7173 200.001 47.3736C198.509 48.0298 196.766 48.358 194.772 48.358H188.022V42.8352H193.34C194.175 42.8352 194.887 42.733 195.475 42.5284C196.072 42.3153 196.528 41.9787 196.843 41.5185C197.167 41.0582 197.329 40.4574 197.329 39.7159C197.329 38.9659 197.167 38.3565 196.843 37.8878C196.528 37.4105 196.072 37.0611 195.475 36.8395C194.887 36.6094 194.175 36.4943 193.34 36.4943H190.835V57H183.727ZM199.067 44.983L205.613 57H197.891L191.499 44.983H199.067ZM207.773 57V30.8182H219.126C221.12 30.8182 222.795 31.0866 224.15 31.6236C225.513 32.1605 226.54 32.919 227.231 33.8991C227.93 34.8793 228.279 36.0341 228.279 37.3636C228.279 38.3267 228.066 39.2045 227.64 39.9972C227.222 40.7898 226.634 41.4545 225.876 41.9915C225.117 42.5199 224.231 42.8864 223.217 43.0909V43.3466C224.342 43.3892 225.364 43.6747 226.285 44.2031C227.205 44.723 227.938 45.4432 228.484 46.3636C229.029 47.2756 229.302 48.3494 229.302 49.5852C229.302 51.017 228.927 52.2912 228.177 53.4077C227.435 54.5241 226.379 55.402 225.006 56.0412C223.634 56.6804 221.998 57 220.097 57H207.773ZM214.881 51.3239H218.205C219.398 51.3239 220.293 51.1023 220.89 50.6591C221.487 50.2074 221.785 49.5426 221.785 48.6648C221.785 48.0511 221.644 47.5312 221.363 47.1051C221.082 46.679 220.681 46.3551 220.161 46.1335C219.65 45.9119 219.032 45.8011 218.308 45.8011H214.881V51.3239ZM214.881 41.4034H217.796C218.418 41.4034 218.968 41.3054 219.445 41.1094C219.923 40.9134 220.293 40.6321 220.558 40.2656C220.83 39.8906 220.967 39.4347 220.967 38.8977C220.967 38.0881 220.677 37.4702 220.097 37.044C219.518 36.6094 218.785 36.392 217.898 36.392H214.881V41.4034ZM247.315 30.8182H254.423V47.5909C254.423 49.5852 253.945 51.3111 252.991 52.7685C252.045 54.2173 250.724 55.3381 249.028 56.1307C247.332 56.9148 245.363 57.3068 243.121 57.3068C240.863 57.3068 238.886 56.9148 237.19 56.1307C235.494 55.3381 234.173 54.2173 233.227 52.7685C232.289 51.3111 231.82 49.5852 231.82 47.5909V30.8182H238.928V46.9773C238.928 47.7869 239.107 48.5114 239.465 49.1506C239.823 49.7812 240.317 50.2756 240.948 50.6335C241.587 50.9915 242.312 51.1705 243.121 51.1705C243.94 51.1705 244.664 50.9915 245.295 50.6335C245.925 50.2756 246.42 49.7812 246.778 49.1506C247.136 48.5114 247.315 47.7869 247.315 46.9773V30.8182ZM282.244 40.6364H275.034C274.983 40.0398 274.846 39.4986 274.625 39.0128C274.412 38.527 274.113 38.1094 273.73 37.7599C273.355 37.402 272.899 37.1293 272.362 36.9418C271.825 36.7457 271.216 36.6477 270.534 36.6477C269.341 36.6477 268.331 36.9375 267.504 37.517C266.686 38.0966 266.064 38.9276 265.637 40.0099C265.22 41.0923 265.011 42.392 265.011 43.9091C265.011 45.5114 265.224 46.8537 265.65 47.9361C266.085 49.0099 266.711 49.8196 267.529 50.3651C268.348 50.902 269.332 51.1705 270.483 51.1705C271.139 51.1705 271.727 51.0895 272.247 50.9276C272.767 50.7571 273.218 50.5142 273.602 50.1989C273.985 49.8835 274.297 49.5043 274.535 49.0611C274.782 48.6094 274.949 48.1023 275.034 47.5398L282.244 47.5909C282.159 48.6989 281.848 49.8281 281.311 50.9787C280.774 52.1207 280.011 53.1776 279.022 54.1491C278.042 55.1122 276.828 55.8878 275.379 56.4759C273.93 57.0639 272.247 57.358 270.329 57.358C267.926 57.358 265.77 56.8423 263.86 55.8111C261.96 54.7798 260.456 53.2628 259.348 51.2599C258.248 49.2571 257.699 46.8068 257.699 43.9091C257.699 40.9943 258.261 38.5398 259.386 36.5455C260.511 34.5426 262.028 33.0298 263.937 32.0071C265.846 30.9759 267.977 30.4602 270.329 30.4602C271.983 30.4602 273.504 30.6861 274.893 31.1378C276.282 31.5895 277.501 32.25 278.549 33.1193C279.598 33.9801 280.441 35.0412 281.081 36.3026C281.72 37.5639 282.108 39.0085 282.244 40.6364ZM285.469 57V30.8182H292.577V41.4034H292.935L300.81 30.8182H309.094L300.247 42.4773L309.298 57H300.81L294.929 47.1818L292.577 50.25V57H285.469ZM324.965 39C324.897 38.1477 324.577 37.483 324.006 37.0057C323.444 36.5284 322.587 36.2898 321.437 36.2898C320.704 36.2898 320.103 36.3793 319.634 36.5582C319.174 36.7287 318.833 36.9631 318.612 37.2614C318.39 37.5597 318.275 37.9006 318.266 38.2841C318.249 38.5994 318.305 38.8849 318.433 39.1406C318.569 39.3878 318.782 39.6136 319.072 39.8182C319.362 40.0142 319.732 40.1932 320.184 40.3551C320.636 40.517 321.173 40.6619 321.795 40.7898L323.942 41.25C325.391 41.5568 326.631 41.9616 327.663 42.4645C328.694 42.9673 329.538 43.5597 330.194 44.2415C330.85 44.9148 331.332 45.6733 331.638 46.517C331.954 47.3608 332.116 48.2812 332.124 49.2784C332.116 51 331.685 52.4574 330.833 53.6506C329.981 54.8438 328.762 55.7514 327.177 56.3736C325.6 56.9957 323.704 57.3068 321.488 57.3068C319.212 57.3068 317.227 56.9702 315.531 56.2969C313.843 55.6236 312.531 54.5881 311.593 53.1903C310.664 51.7841 310.195 49.9858 310.187 47.7955H316.937C316.979 48.5966 317.18 49.2699 317.538 49.8153C317.896 50.3608 318.398 50.7741 319.046 51.0554C319.702 51.3366 320.482 51.4773 321.386 51.4773C322.144 51.4773 322.779 51.3835 323.29 51.196C323.802 51.0085 324.19 50.7486 324.454 50.4162C324.718 50.0838 324.854 49.7045 324.863 49.2784C324.854 48.8778 324.722 48.5284 324.467 48.2301C324.219 47.9233 323.81 47.6506 323.239 47.4119C322.668 47.1648 321.897 46.9347 320.925 46.7216L318.317 46.1591C315.999 45.6562 314.171 44.8168 312.833 43.6406C311.504 42.456 310.843 40.8409 310.852 38.7955C310.843 37.1335 311.286 35.6804 312.181 34.4361C313.085 33.1832 314.333 32.2074 315.927 31.5085C317.529 30.8097 319.366 30.4602 321.437 30.4602C323.55 30.4602 325.379 30.8139 326.921 31.5213C328.464 32.2287 329.653 33.2259 330.488 34.5128C331.332 35.7912 331.758 37.2869 331.766 39H324.965Z" fill="#006341"/>
<path d="M359.312 54V28.116H360.896V47.196H360.968L369.5 36.72H371.336L365.72 43.56L372.272 54H370.508L364.784 44.748L360.896 49.284V54H359.312ZM376.011 54V36.72H377.595V54H376.011ZM376.839 32.544C376.455 32.544 376.131 32.412 375.867 32.148C375.603 31.884 375.471 31.524 375.471 31.068C375.471 30.66 375.603 30.324 375.867 30.06C376.131 29.796 376.455 29.664 376.839 29.664C377.247 29.664 377.571 29.796 377.811 30.06C378.075 30.324 378.207 30.66 378.207 31.068C378.207 31.524 378.075 31.884 377.811 32.148C377.571 32.412 377.247 32.544 376.839 32.544ZM390.538 54.432C389.17 54.432 387.898 54.084 386.722 53.388C385.546 52.668 384.598 51.636 383.878 50.292C383.158 48.924 382.798 47.292 382.798 45.396C382.798 43.452 383.158 41.808 383.878 40.464C384.598 39.096 385.546 38.064 386.722 37.368C387.898 36.648 389.17 36.288 390.538 36.288C391.93 36.288 393.214 36.648 394.39 37.368C395.566 38.064 396.514 39.096 397.234 40.464C397.954 41.808 398.314 43.452 398.314 45.396C398.314 47.292 397.954 48.924 397.234 50.292C396.514 51.636 395.566 52.668 394.39 53.388C393.214 54.084 391.93 54.432 390.538 54.432ZM390.538 53.028C391.714 53.028 392.758 52.704 393.67 52.056C394.582 51.408 395.302 50.52 395.83 49.392C396.382 48.24 396.658 46.908 396.658 45.396C396.658 43.86 396.382 42.516 395.83 41.364C395.302 40.212 394.582 39.312 393.67 38.664C392.758 38.016 391.714 37.692 390.538 37.692C389.386 37.692 388.342 38.016 387.406 38.664C386.494 39.312 385.774 40.212 385.246 41.364C384.718 42.516 384.454 43.86 384.454 45.396C384.454 46.908 384.718 48.24 385.246 49.392C385.774 50.52 386.494 51.408 387.406 52.056C388.342 52.704 389.386 53.028 390.538 53.028ZM407.679 54.432C406.407 54.432 405.219 54.204 404.115 53.748C403.035 53.268 402.111 52.704 401.343 52.056L402.279 50.868C403.023 51.468 403.815 51.984 404.655 52.416C405.495 52.848 406.539 53.064 407.787 53.064C409.131 53.064 410.151 52.728 410.847 52.056C411.543 51.36 411.891 50.556 411.891 49.644C411.891 48.924 411.675 48.324 411.243 47.844C410.811 47.364 410.271 46.968 409.623 46.656C408.999 46.344 408.351 46.068 407.679 45.828C406.815 45.516 405.963 45.168 405.123 44.784C404.307 44.4 403.635 43.908 403.107 43.308C402.579 42.684 402.315 41.88 402.315 40.896C402.315 39.624 402.783 38.544 403.719 37.656C404.679 36.744 406.059 36.288 407.859 36.288C408.795 36.288 409.695 36.456 410.559 36.792C411.447 37.128 412.203 37.56 412.827 38.088L411.963 39.204C411.363 38.772 410.739 38.412 410.091 38.124C409.443 37.812 408.687 37.656 407.823 37.656C406.479 37.656 405.483 37.98 404.835 38.628C404.211 39.276 403.899 39.996 403.899 40.788C403.899 41.436 404.079 41.976 404.439 42.408C404.823 42.84 405.315 43.2 405.915 43.488C406.539 43.752 407.187 44.016 407.859 44.28C408.771 44.616 409.659 44.976 410.523 45.36C411.387 45.744 412.095 46.26 412.647 46.908C413.223 47.556 413.511 48.444 413.511 49.572C413.511 50.436 413.283 51.24 412.827 51.984C412.371 52.704 411.711 53.292 410.847 53.748C409.983 54.204 408.927 54.432 407.679 54.432ZM418.093 54V28.116H419.677V47.196H419.749L428.281 36.72H430.117L424.501 43.56L431.053 54H429.289L423.565 44.748L419.677 49.284V54H418.093Z" fill="#006341"/>
<rect x="340" y="9" width="9" height="58" fill="#006341"/>
<defs>
<clipPath id="clip0_905_3647">
<rect width="85" height="85" fill="white"/>
</clipPath>
</defs>
</svg>
